<svg xmlns="http://www.w3.org/2000/svg" viewBox="0 0 136.36 51.27"><defs><style>.cls-1{fill:#f68b1f;}</style></defs><title>mobile-worker-logo</title><g id="Layer_2" data-name="Layer 2"><g id="Layer_1-2" data-name="Layer 1"><path class="cls-1" d="M27.56,23a1.67,1.67,0,0,0,2.36,0,10.22,10.22,0,0,0,0-14.65,1.67,1.67,0,0,0-2.34,2.39,6.88,6.88,0,0,1,0,9.87A1.67,1.67,0,0,0,27.56,23Z"/><path class="cls-1" d="M40,15.74A15.93,15.93,0,0,0,35.18,4.31,1.67,1.67,0,1,0,32.84,6.7a12.63,12.63,0,0,1,0,18.08,1.67,1.67,0,0,0,2.35,2.38A15.93,15.93,0,0,0,40,15.74Z"/><path class="cls-1" d="M43.68,15.74a18,18,0,0,1-5.42,12.87A1.67,1.67,0,1,0,40.6,31,21.33,21.33,0,0,0,40.6.48a1.67,1.67,0,1,0-2.35,2.38A18,18,0,0,1,43.68,15.74Z"/><path class="cls-1" d="M14.4,21.72a1.81,1.81,0,0,0,1.41.81h6a1.8,1.8,0,0,0,1.41-.81l3-5.17a1.81,1.81,0,0,0,0-1.63l-3-5.17a1.81,1.81,0,0,0-1.41-.81h-6a1.81,1.81,0,0,0-1.41.81l-3,5.17a1.81,1.81,0,0,0,0,1.63Zm4.4-9a3.06,3.06,0,1,1-3.06,3.06A3.06,3.06,0,0,1,18.79,12.69Z"/><path class="cls-1" d="M28.21,31.67H23.44L20.11,26a2.84,2.84,0,0,0-2.44-1.39H7A2.83,2.83,0,0,0,4.56,26L.39,33.06a2.84,2.84,0,0,0,4.88,2.88l3.34-5.66h2.79L1.8,46.57a2.83,2.83,0,1,0,4.88,2.88L12.24,40l5.55,9.41a2.84,2.84,0,0,0,4.88-2.88L15.53,34.46,17,31.93l2.36,4a2.84,2.84,0,0,0,2.44,1.39h6.39a2.83,2.83,0,1,0,0-5.67Z"/><path class="cls-1" d="M99.56,44c-.34-.3-.54-.5-.54-.78,0-.13.08-.22.35-.47l7.2-6.84h-5l-5.41,5.35a2.82,2.82,0,0,0-.36.45v-5.8H92.52a.63.63,0,0,0-.63.63V51h3.86V44.83a3.58,3.58,0,0,0,.58.67l5.12,4.78a2.57,2.57,0,0,0,1.76.69h3.53a.25.25,0,0,0,.17-.43Z"/><path class="cls-1" d="M136.28,50.54,131.39,46h.28a3.29,3.29,0,0,0,3.16-1.75,6.87,6.87,0,0,0,.67-3.41,5.67,5.67,0,0,0-.8-3.39,3.79,3.79,0,0,0-3.48-1.54h-9.49a.63.63,0,0,0-.63.63V51H125V39.24h5.28a1.51,1.51,0,0,1,1,.23c.09.09.31.42.31,1.47a3.84,3.84,0,0,1-.22,1.55c-.15.23-.4.32-.89.32h-2.6a1.62,1.62,0,0,0-1.79,1.58v.32a2.66,2.66,0,0,0,.84,1.61l3.82,3.77a3.09,3.09,0,0,0,2.17.89h3.23A.25.25,0,0,0,136.28,50.54Z"/><path class="cls-1" d="M119,47.64h-7.83V45h7.34V41.63h-7.34V39.24h8.38V35.91H107.95a.63.63,0,0,0-.63.63V48.29a2.73,2.73,0,0,0,.71,2.07,2.62,2.62,0,0,0,2,.61h9.6v-2.7A.63.63,0,0,0,119,47.64Z"/><path class="cls-1" d="M78.65,32.22c1.72,0,4.31,0,6-1.67s1.79-4.11,1.79-6.16-.21-4.64-1.79-6.16-4.3-1.66-6-1.66-4.27,0-6,1.66-1.81,4-1.81,6.17c0,1.65,0,4.41,1.81,6.16S76.95,32.22,78.65,32.22ZM75.54,20.75c.6-.78,1.59-.93,3.09-.93s2.51.16,3.12.94c.31.39.71,1.19.71,3.64A6.41,6.41,0,0,1,81.75,28c-.61.8-1.56.95-3.11.95s-2.5-.15-3.09-.94h0a6.31,6.31,0,0,1-.72-3.62C74.82,22.55,75,21.39,75.54,20.75Z"/><path class="cls-1" d="M66.33,51.27c1.72,0,4.31,0,6-1.67s1.79-4.11,1.79-6.16-.21-4.64-1.79-6.16-4.3-1.66-6-1.66-4.27,0-6,1.66-1.81,4-1.81,6.17c0,1.65,0,4.41,1.81,6.16S64.62,51.27,66.33,51.27ZM63.21,39.8c.6-.78,1.59-.93,3.09-.93s2.51.16,3.12.94c.31.39.71,1.19.71,3.64a6.41,6.41,0,0,1-.72,3.62c-.61.8-1.56.95-3.11.95s-2.5-.15-3.09-.94h0a6.31,6.31,0,0,1-.72-3.62C62.49,41.6,62.72,40.44,63.21,39.8Z"/><path class="cls-1" d="M107.61,31.38V16.77h-3.28a.63.63,0,0,0-.63.63V32H107A.63.63,0,0,0,107.61,31.38Z"/><path class="cls-1" d="M110.5,31.51a2.79,2.79,0,0,0,1.7.5h9.11V29.27a.63.63,0,0,0-.63-.63h-7V16.77H110.4a.63.63,0,0,0-.63.63V29.86A2.1,2.1,0,0,0,110.5,31.51Z"/><path class="cls-1" d="M124.85,32h9.72V29.27a.63.63,0,0,0-.63-.63H126V25.93h7.43V22.56H126V20.14h8.48V16.77H122.73a.63.63,0,0,0-.63.63V29.3a2.77,2.77,0,0,0,.72,2.1A2.65,2.65,0,0,0,124.85,32Z"/><path class="cls-1" d="M101,30.9a4.7,4.7,0,0,0,1-3.36,4.06,4.06,0,0,0-.82-2.92,2.74,2.74,0,0,0-.47-.42,3.22,3.22,0,0,0,.27-.29,3.82,3.82,0,0,0,.81-2.68,4.86,4.86,0,0,0-1.06-3.44,4,4,0,0,0-3-1h-9a.63.63,0,0,0-.63.63v12a2.73,2.73,0,0,0,.64,1.84,2.37,2.37,0,0,0,2,.78h7.27A3.57,3.57,0,0,0,101,30.9ZM92,20.14h4.63c.41,0,.67,0,.86.18a1.59,1.59,0,0,1,.26,1c0,.8-.15,1-.18,1-.15.21-.4.23-.92.23H92Zm4.71,8.5H92V26h4.89c.61,0,.83.22.89.3a2,2,0,0,1,.19,1.06,1.75,1.75,0,0,1-.21,1C97.49,28.64,96.91,28.64,96.67,28.64Z"/><path class="cls-1" d="M86,46h.28a3.29,3.29,0,0,0,3.16-1.75,6.87,6.87,0,0,0,.67-3.41,5.67,5.67,0,0,0-.8-3.39,3.79,3.79,0,0,0-3.48-1.54H76.32a.63.63,0,0,0-.63.63V51h3.86V39.24h5.28a1.51,1.51,0,0,1,1,.23c.09.09.31.42.31,1.47a3.84,3.84,0,0,1-.22,1.55c-.15.23-.4.32-.89.32h-2.6a1.62,1.62,0,0,0-1.79,1.58v.32a2.66,2.66,0,0,0,.84,1.61l3.82,3.77a3.09,3.09,0,0,0,2.17.89h3.23a.25.25,0,0,0,.17-.43Z"/><path class="cls-1" d="M52.16,32l2.58-10L57,30.28a2.63,2.63,0,0,0,5.05,0L64.27,22l2.57,10h4L67.27,19.17c-.45-1.66-1.33-2.4-2.86-2.4H62.76a.63.63,0,0,0-.61.46l-2.67,9.38L57.41,19a2.68,2.68,0,0,0-2.82-2.24H52.94a.63.63,0,0,0-.61.46L48.19,32Z"/><path class="cls-1" d="M51.89,45.79l-2.21-8.16a2.6,2.6,0,0,0-5,0l-2.21,8.13-2.54-9.84H36l4.06,14.61a.63.63,0,0,0,.6.45h1.76a2.62,2.62,0,0,0,2.66-2.21l2-7.46,1.56,5.47.54,2a4.92,4.92,0,0,0,.18.54l.35,1.23a.63.63,0,0,0,.6.45h1.76a2.7,2.7,0,0,0,2.7-2.37l3.51-12.69H54.44Zm-4.71-4.62h0v0Z"/></g></g></svg>